<?xml version="1.0" encoding="UTF-8"?><svg xmlns="http://www.w3.org/2000/svg" xmlns:xlink="http://www.w3.org/1999/xlink" fill-opacity="1" color-rendering="auto" color-interpolation="auto" text-rendering="auto" stroke="black" stroke-linecap="square" width="624" stroke-miterlimit="10" shape-rendering="auto" stroke-opacity="1" fill="black" stroke-dasharray="none" font-weight="normal" stroke-width="1" height="830" font-family="'Dialog'" font-style="normal" stroke-linejoin="miter" font-size="12px" stroke-dashoffset="0" image-rendering="auto">
  <!--Generated by ySVG 2.5-->
  <defs id="genericDefs"/>
  <g>
    <defs id="defs1">
      <clipPath clipPathUnits="userSpaceOnUse" id="clipPath1">
        <path d="M0 0 L624 0 L624 830 L0 830 L0 0 Z"/>
      </clipPath>
      <clipPath clipPathUnits="userSpaceOnUse" id="clipPath2">
        <path d="M-15 -815 L609 -815 L609 15 L-15 15 L-15 -815 Z"/>
      </clipPath>
    </defs>
    <g fill="white" text-rendering="geometricPrecision" shape-rendering="geometricPrecision" transform="translate(15,815)" stroke="white">
      <rect x="-15" width="624" height="830" y="-815" clip-path="url(#clipPath2)" stroke="none"/>
    </g>
    <g fill="rgb(255,255,153)" text-rendering="geometricPrecision" shape-rendering="geometricPrecision" transform="matrix(1,0,0,1,15,815)" stroke="rgb(255,255,153)">
      <rect x="0" y="-432.5" clip-path="url(#clipPath2)" width="30" rx="4" ry="4" height="30" stroke="none"/>
    </g>
    <g text-rendering="geometricPrecision" stroke-miterlimit="1.45" shape-rendering="geometricPrecision" transform="matrix(1,0,0,1,15,815)" stroke-linecap="butt">
      <rect x="0" y="-432.5" clip-path="url(#clipPath2)" fill="none" width="30" rx="4" ry="4" height="30"/>
    </g>
    <g fill="rgb(255,255,153)" text-rendering="geometricPrecision" shape-rendering="geometricPrecision" transform="matrix(1,0,0,1,15,815)" stroke="rgb(255,255,153)">
      <rect x="119.7891" y="-660" clip-path="url(#clipPath2)" width="64.4141" rx="4" ry="4" height="30" stroke="none"/>
    </g>
    <g text-rendering="geometricPrecision" stroke-miterlimit="1.45" shape-rendering="geometricPrecision" font-family="sans-serif" transform="matrix(1,0,0,1,15,815)" stroke-linecap="butt">
      <text x="126.7891" xml:space="preserve" y="-640.8457" clip-path="url(#clipPath2)" stroke="none">moment</text>
      <rect x="119.7891" y="-660" clip-path="url(#clipPath2)" fill="none" width="64.4141" rx="4" ry="4" height="30"/>
    </g>
    <g fill="rgb(255,255,153)" text-rendering="geometricPrecision" shape-rendering="geometricPrecision" transform="matrix(1,0,0,1,15,815)" stroke="rgb(255,255,153)">
      <rect x="127.6641" y="-467.5" clip-path="url(#clipPath2)" width="48.6641" rx="4" ry="4" height="30" stroke="none"/>
    </g>
    <g text-rendering="geometricPrecision" stroke-miterlimit="1.45" shape-rendering="geometricPrecision" font-family="sans-serif" transform="matrix(1,0,0,1,15,815)" stroke-linecap="butt">
      <text x="134.6641" xml:space="preserve" y="-448.3457" clip-path="url(#clipPath2)" stroke="none">alarm</text>
      <rect x="127.6641" y="-467.5" clip-path="url(#clipPath2)" fill="none" width="48.6641" rx="4" ry="4" height="30"/>
    </g>
    <g fill="rgb(255,255,153)" text-rendering="geometricPrecision" shape-rendering="geometricPrecision" transform="matrix(1,0,0,1,15,815)" stroke="rgb(255,255,153)">
      <rect x="354.9756" y="-485" clip-path="url(#clipPath2)" width="21.6348" rx="4" ry="4" height="30" stroke="none"/>
    </g>
    <g text-rendering="geometricPrecision" stroke-miterlimit="1.45" shape-rendering="geometricPrecision" font-family="sans-serif" transform="matrix(1,0,0,1,15,815)" stroke-linecap="butt">
      <text x="361.9756" xml:space="preserve" y="-465.8457" clip-path="url(#clipPath2)" stroke="none">1</text>
      <rect x="354.9756" y="-485" clip-path="url(#clipPath2)" fill="none" width="21.6348" rx="4" ry="4" height="30"/>
    </g>
    <g fill="rgb(255,255,153)" text-rendering="geometricPrecision" shape-rendering="geometricPrecision" transform="matrix(1,0,0,1,15,815)" stroke="rgb(255,255,153)">
      <rect x="354.9756" y="-275" clip-path="url(#clipPath2)" width="21.6348" rx="4" ry="4" height="30" stroke="none"/>
    </g>
    <g text-rendering="geometricPrecision" stroke-miterlimit="1.45" shape-rendering="geometricPrecision" font-family="sans-serif" transform="matrix(1,0,0,1,15,815)" stroke-linecap="butt">
      <text x="361.9756" xml:space="preserve" y="-255.8457" clip-path="url(#clipPath2)" stroke="none">2</text>
      <rect x="354.9756" y="-275" clip-path="url(#clipPath2)" fill="none" width="21.6348" rx="4" ry="4" height="30"/>
    </g>
    <g fill="aqua" text-rendering="geometricPrecision" shape-rendering="geometricPrecision" transform="matrix(1,0,0,1,15,815)" stroke="aqua">
      <rect x="337.3945" y="-800" clip-path="url(#clipPath2)" width="56.7969" rx="4" ry="4" height="30" stroke="none"/>
    </g>
    <g text-rendering="geometricPrecision" stroke-miterlimit="1.45" shape-rendering="geometricPrecision" font-family="sans-serif" transform="matrix(1,0,0,1,15,815)" stroke-linecap="butt">
      <text x="344.3945" xml:space="preserve" y="-780.8457" clip-path="url(#clipPath2)" stroke="none">second</text>
      <rect x="337.3945" y="-800" clip-path="url(#clipPath2)" fill="none" width="56.7969" rx="4" ry="4" height="30"/>
    </g>
    <g fill="aqua" text-rendering="geometricPrecision" shape-rendering="geometricPrecision" transform="matrix(1,0,0,1,15,815)" stroke="aqua">
      <rect x="337.6318" y="-765" clip-path="url(#clipPath2)" width="56.3223" rx="4" ry="4" height="30" stroke="none"/>
    </g>
    <g text-rendering="geometricPrecision" stroke-miterlimit="1.45" shape-rendering="geometricPrecision" font-family="sans-serif" transform="matrix(1,0,0,1,15,815)" stroke-linecap="butt">
      <text x="344.6318" xml:space="preserve" y="-745.8457" clip-path="url(#clipPath2)" stroke="none">minute</text>
      <rect x="337.6318" y="-765" clip-path="url(#clipPath2)" fill="none" width="56.3223" rx="4" ry="4" height="30"/>
    </g>
    <g fill="aqua" text-rendering="geometricPrecision" shape-rendering="geometricPrecision" transform="matrix(1,0,0,1,15,815)" stroke="aqua">
      <rect x="346.4062" y="-660" clip-path="url(#clipPath2)" width="38.7734" rx="4" ry="4" height="30" stroke="none"/>
    </g>
    <g text-rendering="geometricPrecision" stroke-miterlimit="1.45" shape-rendering="geometricPrecision" font-family="sans-serif" transform="matrix(1,0,0,1,15,815)" stroke-linecap="butt">
      <text x="353.4062" xml:space="preserve" y="-640.8457" clip-path="url(#clipPath2)" stroke="none">dow</text>
      <rect x="346.4062" y="-660" clip-path="url(#clipPath2)" fill="none" width="38.7734" rx="4" ry="4" height="30"/>
    </g>
    <g fill="aqua" text-rendering="geometricPrecision" shape-rendering="geometricPrecision" transform="matrix(1,0,0,1,15,815)" stroke="aqua">
      <rect x="345.2637" y="-625" clip-path="url(#clipPath2)" width="41.0586" rx="4" ry="4" height="30" stroke="none"/>
    </g>
    <g text-rendering="geometricPrecision" stroke-miterlimit="1.45" shape-rendering="geometricPrecision" font-family="sans-serif" transform="matrix(1,0,0,1,15,815)" stroke-linecap="butt">
      <text x="352.2637" xml:space="preserve" y="-605.8457" clip-path="url(#clipPath2)" stroke="none">date</text>
      <rect x="345.2637" y="-625" clip-path="url(#clipPath2)" fill="none" width="41.0586" rx="4" ry="4" height="30"/>
    </g>
    <g fill="aqua" text-rendering="geometricPrecision" shape-rendering="geometricPrecision" transform="matrix(1,0,0,1,15,815)" stroke="aqua">
      <rect x="345.0498" y="-730" clip-path="url(#clipPath2)" width="41.4863" rx="4" ry="4" height="30" stroke="none"/>
    </g>
    <g text-rendering="geometricPrecision" stroke-miterlimit="1.45" shape-rendering="geometricPrecision" font-family="sans-serif" transform="matrix(1,0,0,1,15,815)" stroke-linecap="butt">
      <text x="352.0498" xml:space="preserve" y="-710.8457" clip-path="url(#clipPath2)" stroke="none">hour</text>
      <rect x="345.0498" y="-730" clip-path="url(#clipPath2)" fill="none" width="41.4863" rx="4" ry="4" height="30"/>
    </g>
    <g fill="aqua" text-rendering="geometricPrecision" shape-rendering="geometricPrecision" transform="matrix(1,0,0,1,15,815)" stroke="aqua">
      <rect x="339.3193" y="-590" clip-path="url(#clipPath2)" width="52.9473" rx="4" ry="4" height="30" stroke="none"/>
    </g>
    <g text-rendering="geometricPrecision" stroke-miterlimit="1.45" shape-rendering="geometricPrecision" font-family="sans-serif" transform="matrix(1,0,0,1,15,815)" stroke-linecap="butt">
      <text x="346.3193" xml:space="preserve" y="-570.8457" clip-path="url(#clipPath2)" stroke="none">month</text>
      <rect x="339.3193" y="-590" clip-path="url(#clipPath2)" fill="none" width="52.9473" rx="4" ry="4" height="30"/>
    </g>
    <g fill="rgb(255,153,153)" text-rendering="geometricPrecision" shape-rendering="geometricPrecision" transform="matrix(1,0,0,1,15,815)" stroke="rgb(255,153,153)">
      <rect x="311.6367" y="-520" clip-path="url(#clipPath2)" width="108.3125" rx="4" ry="4" height="30" stroke="none"/>
    </g>
    <g text-rendering="geometricPrecision" stroke-miterlimit="1.45" shape-rendering="geometricPrecision" font-family="sans-serif" transform="matrix(1,0,0,1,15,815)" stroke-linecap="butt">
      <text x="318.6367" xml:space="preserve" y="-500.8457" clip-path="url(#clipPath2)" stroke="none">is_next_century</text>
      <rect x="311.6367" y="-520" clip-path="url(#clipPath2)" fill="none" width="108.3125" rx="4" ry="4" height="30"/>
    </g>
    <g fill="aqua" text-rendering="geometricPrecision" shape-rendering="geometricPrecision" transform="matrix(1,0,0,1,15,815)" stroke="aqua">
      <rect x="345.4072" y="-555" clip-path="url(#clipPath2)" width="40.7715" rx="4" ry="4" height="30" stroke="none"/>
    </g>
    <g text-rendering="geometricPrecision" stroke-miterlimit="1.45" shape-rendering="geometricPrecision" font-family="sans-serif" transform="matrix(1,0,0,1,15,815)" stroke-linecap="butt">
      <text x="352.4072" xml:space="preserve" y="-535.8457" clip-path="url(#clipPath2)" stroke="none">year</text>
      <rect x="345.4072" y="-555" clip-path="url(#clipPath2)" fill="none" width="40.7715" rx="4" ry="4" height="30"/>
    </g>
    <g fill="rgb(255,153,153)" text-rendering="geometricPrecision" shape-rendering="geometricPrecision" transform="matrix(1,0,0,1,15,815)" stroke="rgb(255,153,153)">
      <rect x="316.4385" y="-695" clip-path="url(#clipPath2)" width="98.709" rx="4" ry="4" height="30" stroke="none"/>
    </g>
    <g text-rendering="geometricPrecision" stroke-miterlimit="1.45" shape-rendering="geometricPrecision" font-family="sans-serif" transform="matrix(1,0,0,1,15,815)" stroke-linecap="butt">
      <text x="323.4385" xml:space="preserve" y="-675.8457" clip-path="url(#clipPath2)" stroke="none">is_12h_format</text>
      <rect x="316.4385" y="-695" clip-path="url(#clipPath2)" fill="none" width="98.709" rx="4" ry="4" height="30"/>
    </g>
    <g fill="aqua" text-rendering="geometricPrecision" shape-rendering="geometricPrecision" transform="matrix(1,0,0,1,15,815)" stroke="aqua">
      <rect x="507.2188" y="-765" clip-path="url(#clipPath2)" width="56.7969" rx="4" ry="4" height="30" stroke="none"/>
    </g>
    <g text-rendering="geometricPrecision" stroke-miterlimit="1.45" shape-rendering="geometricPrecision" font-family="sans-serif" transform="matrix(1,0,0,1,15,815)" stroke-linecap="butt">
      <text x="514.2188" xml:space="preserve" y="-745.8457" clip-path="url(#clipPath2)" stroke="none">second</text>
      <rect x="507.2188" y="-765" clip-path="url(#clipPath2)" fill="none" width="56.7969" rx="4" ry="4" height="30"/>
    </g>
    <g fill="aqua" text-rendering="geometricPrecision" shape-rendering="geometricPrecision" transform="matrix(1,0,0,1,15,815)" stroke="aqua">
      <rect x="507.4561" y="-730" clip-path="url(#clipPath2)" width="56.3223" rx="4" ry="4" height="30" stroke="none"/>
    </g>
    <g text-rendering="geometricPrecision" stroke-miterlimit="1.45" shape-rendering="geometricPrecision" font-family="sans-serif" transform="matrix(1,0,0,1,15,815)" stroke-linecap="butt">
      <text x="514.4561" xml:space="preserve" y="-710.8457" clip-path="url(#clipPath2)" stroke="none">minute</text>
      <rect x="507.4561" y="-730" clip-path="url(#clipPath2)" fill="none" width="56.3223" rx="4" ry="4" height="30"/>
    </g>
    <g fill="aqua" text-rendering="geometricPrecision" shape-rendering="geometricPrecision" transform="matrix(1,0,0,1,15,815)" stroke="aqua">
      <rect x="514.874" y="-695" clip-path="url(#clipPath2)" width="41.4863" rx="4" ry="4" height="30" stroke="none"/>
    </g>
    <g text-rendering="geometricPrecision" stroke-miterlimit="1.45" shape-rendering="geometricPrecision" font-family="sans-serif" transform="matrix(1,0,0,1,15,815)" stroke-linecap="butt">
      <text x="521.874" xml:space="preserve" y="-675.8457" clip-path="url(#clipPath2)" stroke="none">hour</text>
      <rect x="514.874" y="-695" clip-path="url(#clipPath2)" fill="none" width="41.4863" rx="4" ry="4" height="30"/>
    </g>
    <g fill="aqua" text-rendering="geometricPrecision" shape-rendering="geometricPrecision" transform="matrix(1,0,0,1,15,815)" stroke="aqua">
      <rect x="507.4561" y="-345" clip-path="url(#clipPath2)" width="56.3223" rx="4" ry="4" height="30" stroke="none"/>
    </g>
    <g text-rendering="geometricPrecision" stroke-miterlimit="1.45" shape-rendering="geometricPrecision" font-family="sans-serif" transform="matrix(1,0,0,1,15,815)" stroke-linecap="butt">
      <text x="514.4561" xml:space="preserve" y="-325.8457" clip-path="url(#clipPath2)" stroke="none">minute</text>
      <rect x="507.4561" y="-345" clip-path="url(#clipPath2)" fill="none" width="56.3223" rx="4" ry="4" height="30"/>
    </g>
    <g fill="aqua" text-rendering="geometricPrecision" shape-rendering="geometricPrecision" transform="matrix(1,0,0,1,15,815)" stroke="aqua">
      <rect x="514.874" y="-310" clip-path="url(#clipPath2)" width="41.4863" rx="4" ry="4" height="30" stroke="none"/>
    </g>
    <g text-rendering="geometricPrecision" stroke-miterlimit="1.45" shape-rendering="geometricPrecision" font-family="sans-serif" transform="matrix(1,0,0,1,15,815)" stroke-linecap="butt">
      <text x="521.874" xml:space="preserve" y="-290.8457" clip-path="url(#clipPath2)" stroke="none">hour</text>
      <rect x="514.874" y="-310" clip-path="url(#clipPath2)" fill="none" width="41.4863" rx="4" ry="4" height="30"/>
    </g>
    <g fill="rgb(255,153,153)" text-rendering="geometricPrecision" shape-rendering="geometricPrecision" transform="matrix(1,0,0,1,15,815)" stroke="rgb(255,153,153)">
      <rect x="486.2627" y="-660" clip-path="url(#clipPath2)" width="98.709" rx="4" ry="4" height="30" stroke="none"/>
    </g>
    <g text-rendering="geometricPrecision" stroke-miterlimit="1.45" shape-rendering="geometricPrecision" font-family="sans-serif" transform="matrix(1,0,0,1,15,815)" stroke-linecap="butt">
      <text x="493.2627" xml:space="preserve" y="-640.8457" clip-path="url(#clipPath2)" stroke="none">is_12h_format</text>
      <rect x="486.2627" y="-660" clip-path="url(#clipPath2)" fill="none" width="98.709" rx="4" ry="4" height="30"/>
    </g>
    <g fill="rgb(255,153,153)" text-rendering="geometricPrecision" shape-rendering="geometricPrecision" transform="matrix(1,0,0,1,15,815)" stroke="rgb(255,153,153)">
      <rect x="486.2627" y="-275" clip-path="url(#clipPath2)" width="98.709" rx="4" ry="4" height="30" stroke="none"/>
    </g>
    <g text-rendering="geometricPrecision" stroke-miterlimit="1.45" shape-rendering="geometricPrecision" font-family="sans-serif" transform="matrix(1,0,0,1,15,815)" stroke-linecap="butt">
      <text x="493.2627" xml:space="preserve" y="-255.8457" clip-path="url(#clipPath2)" stroke="none">is_12h_format</text>
      <rect x="486.2627" y="-275" clip-path="url(#clipPath2)" fill="none" width="98.709" rx="4" ry="4" height="30"/>
    </g>
    <g fill="rgb(255,153,153)" text-rendering="geometricPrecision" shape-rendering="geometricPrecision" transform="matrix(1,0,0,1,15,815)" stroke="rgb(255,153,153)">
      <rect x="485.1113" y="-625" clip-path="url(#clipPath2)" width="101.0117" rx="4" ry="4" height="30" stroke="none"/>
    </g>
    <g text-rendering="geometricPrecision" stroke-miterlimit="1.45" shape-rendering="geometricPrecision" font-family="sans-serif" transform="matrix(1,0,0,1,15,815)" stroke-linecap="butt">
      <text x="492.1113" xml:space="preserve" y="-605.8457" clip-path="url(#clipPath2)" stroke="none">ignore_second</text>
      <rect x="485.1113" y="-625" clip-path="url(#clipPath2)" fill="none" width="101.0117" rx="4" ry="4" height="30"/>
    </g>
    <g fill="rgb(255,153,153)" text-rendering="geometricPrecision" shape-rendering="geometricPrecision" transform="matrix(1,0,0,1,15,815)" stroke="rgb(255,153,153)">
      <rect x="485.3486" y="-590" clip-path="url(#clipPath2)" width="100.5371" rx="4" ry="4" height="30" stroke="none"/>
    </g>
    <g text-rendering="geometricPrecision" stroke-miterlimit="1.45" shape-rendering="geometricPrecision" font-family="sans-serif" transform="matrix(1,0,0,1,15,815)" stroke-linecap="butt">
      <text x="492.3486" xml:space="preserve" y="-570.8457" clip-path="url(#clipPath2)" stroke="none">ignore_minute</text>
      <rect x="485.3486" y="-590" clip-path="url(#clipPath2)" fill="none" width="100.5371" rx="4" ry="4" height="30"/>
    </g>
    <g fill="rgb(255,153,153)" text-rendering="geometricPrecision" shape-rendering="geometricPrecision" transform="matrix(1,0,0,1,15,815)" stroke="rgb(255,153,153)">
      <rect x="492.7666" y="-555" clip-path="url(#clipPath2)" width="85.7012" rx="4" ry="4" height="30" stroke="none"/>
    </g>
    <g text-rendering="geometricPrecision" stroke-miterlimit="1.45" shape-rendering="geometricPrecision" font-family="sans-serif" transform="matrix(1,0,0,1,15,815)" stroke-linecap="butt">
      <text x="499.7666" xml:space="preserve" y="-535.8457" clip-path="url(#clipPath2)" stroke="none">ignore_hour</text>
      <rect x="492.7666" y="-555" clip-path="url(#clipPath2)" fill="none" width="85.7012" rx="4" ry="4" height="30"/>
    </g>
    <g fill="aqua" text-rendering="geometricPrecision" shape-rendering="geometricPrecision" transform="matrix(1,0,0,1,15,815)" stroke="aqua">
      <rect x="499.7012" y="-520" clip-path="url(#clipPath2)" width="71.832" rx="4" ry="4" height="30" stroke="none"/>
    </g>
    <g text-rendering="geometricPrecision" stroke-miterlimit="1.45" shape-rendering="geometricPrecision" font-family="sans-serif" transform="matrix(1,0,0,1,15,815)" stroke-linecap="butt">
      <text x="506.7012" xml:space="preserve" y="-500.8457" clip-path="url(#clipPath2)" stroke="none">date_dow</text>
      <rect x="499.7012" y="-520" clip-path="url(#clipPath2)" fill="none" width="71.832" rx="4" ry="4" height="30"/>
    </g>
    <g fill="rgb(255,153,153)" text-rendering="geometricPrecision" shape-rendering="geometricPrecision" transform="matrix(1,0,0,1,15,815)" stroke="rgb(255,153,153)">
      <rect x="477.5938" y="-485" clip-path="url(#clipPath2)" width="116.0469" rx="4" ry="4" height="30" stroke="none"/>
    </g>
    <g text-rendering="geometricPrecision" stroke-miterlimit="1.45" shape-rendering="geometricPrecision" font-family="sans-serif" transform="matrix(1,0,0,1,15,815)" stroke-linecap="butt">
      <text x="484.5938" xml:space="preserve" y="-465.8457" clip-path="url(#clipPath2)" stroke="none">ignore_date_dow</text>
      <rect x="477.5938" y="-485" clip-path="url(#clipPath2)" fill="none" width="116.0469" rx="4" ry="4" height="30"/>
    </g>
    <g fill="rgb(255,153,153)" text-rendering="geometricPrecision" shape-rendering="geometricPrecision" transform="matrix(1,0,0,1,15,815)" stroke="rgb(255,153,153)">
      <rect x="479.082" y="-450" clip-path="url(#clipPath2)" width="113.0703" rx="4" ry="4" height="30" stroke="none"/>
    </g>
    <g text-rendering="geometricPrecision" stroke-miterlimit="1.45" shape-rendering="geometricPrecision" font-family="sans-serif" transform="matrix(1,0,0,1,15,815)" stroke-linecap="butt">
      <text x="486.082" xml:space="preserve" y="-430.8457" clip-path="url(#clipPath2)" stroke="none">is_date_not_dow</text>
      <rect x="479.082" y="-450" clip-path="url(#clipPath2)" fill="none" width="113.0703" rx="4" ry="4" height="30"/>
    </g>
    <g fill="rgb(255,153,153)" text-rendering="geometricPrecision" shape-rendering="geometricPrecision" transform="matrix(1,0,0,1,15,815)" stroke="rgb(255,153,153)">
      <rect x="504.4707" y="-415" clip-path="url(#clipPath2)" width="62.293" rx="4" ry="4" height="30" stroke="none"/>
    </g>
    <g text-rendering="geometricPrecision" stroke-miterlimit="1.45" shape-rendering="geometricPrecision" font-family="sans-serif" transform="matrix(1,0,0,1,15,815)" stroke-linecap="butt">
      <text x="511.4707" xml:space="preserve" y="-395.8457" clip-path="url(#clipPath2)" stroke="none">enabled</text>
      <rect x="504.4707" y="-415" clip-path="url(#clipPath2)" fill="none" width="62.293" rx="4" ry="4" height="30"/>
    </g>
    <g fill="rgb(255,153,153)" text-rendering="geometricPrecision" shape-rendering="geometricPrecision" transform="matrix(1,0,0,1,15,815)" stroke="rgb(255,153,153)">
      <rect x="502.1123" y="-380" clip-path="url(#clipPath2)" width="67.0098" rx="4" ry="4" height="30" stroke="none"/>
    </g>
    <g text-rendering="geometricPrecision" stroke-miterlimit="1.45" shape-rendering="geometricPrecision" font-family="sans-serif" transform="matrix(1,0,0,1,15,815)" stroke-linecap="butt">
      <text x="509.1123" xml:space="preserve" y="-360.8457" clip-path="url(#clipPath2)" stroke="none">occurred</text>
      <rect x="502.1123" y="-380" clip-path="url(#clipPath2)" fill="none" width="67.0098" rx="4" ry="4" height="30"/>
    </g>
    <g fill="rgb(255,153,153)" text-rendering="geometricPrecision" shape-rendering="geometricPrecision" transform="matrix(1,0,0,1,15,815)" stroke="rgb(255,153,153)">
      <rect x="485.3486" y="-240" clip-path="url(#clipPath2)" width="100.5371" rx="4" ry="4" height="30" stroke="none"/>
    </g>
    <g text-rendering="geometricPrecision" stroke-miterlimit="1.45" shape-rendering="geometricPrecision" font-family="sans-serif" transform="matrix(1,0,0,1,15,815)" stroke-linecap="butt">
      <text x="492.3486" xml:space="preserve" y="-220.8457" clip-path="url(#clipPath2)" stroke="none">ignore_minute</text>
      <rect x="485.3486" y="-240" clip-path="url(#clipPath2)" fill="none" width="100.5371" rx="4" ry="4" height="30"/>
    </g>
    <g fill="rgb(255,153,153)" text-rendering="geometricPrecision" shape-rendering="geometricPrecision" transform="matrix(1,0,0,1,15,815)" stroke="rgb(255,153,153)">
      <rect x="492.7666" y="-205" clip-path="url(#clipPath2)" width="85.7012" rx="4" ry="4" height="30" stroke="none"/>
    </g>
    <g text-rendering="geometricPrecision" stroke-miterlimit="1.45" shape-rendering="geometricPrecision" font-family="sans-serif" transform="matrix(1,0,0,1,15,815)" stroke-linecap="butt">
      <text x="499.7666" xml:space="preserve" y="-185.8457" clip-path="url(#clipPath2)" stroke="none">ignore_hour</text>
      <rect x="492.7666" y="-205" clip-path="url(#clipPath2)" fill="none" width="85.7012" rx="4" ry="4" height="30"/>
    </g>
    <g fill="aqua" text-rendering="geometricPrecision" shape-rendering="geometricPrecision" transform="matrix(1,0,0,1,15,815)" stroke="aqua">
      <rect x="499.7012" y="-170" clip-path="url(#clipPath2)" width="71.832" rx="4" ry="4" height="30" stroke="none"/>
    </g>
    <g text-rendering="geometricPrecision" stroke-miterlimit="1.45" shape-rendering="geometricPrecision" font-family="sans-serif" transform="matrix(1,0,0,1,15,815)" stroke-linecap="butt">
      <text x="506.7012" xml:space="preserve" y="-150.8457" clip-path="url(#clipPath2)" stroke="none">date_dow</text>
      <rect x="499.7012" y="-170" clip-path="url(#clipPath2)" fill="none" width="71.832" rx="4" ry="4" height="30"/>
    </g>
    <g fill="rgb(255,153,153)" text-rendering="geometricPrecision" shape-rendering="geometricPrecision" transform="matrix(1,0,0,1,15,815)" stroke="rgb(255,153,153)">
      <rect x="477.5938" y="-135" clip-path="url(#clipPath2)" width="116.0469" rx="4" ry="4" height="30" stroke="none"/>
    </g>
    <g text-rendering="geometricPrecision" stroke-miterlimit="1.45" shape-rendering="geometricPrecision" font-family="sans-serif" transform="matrix(1,0,0,1,15,815)" stroke-linecap="butt">
      <text x="484.5938" xml:space="preserve" y="-115.8457" clip-path="url(#clipPath2)" stroke="none">ignore_date_dow</text>
      <rect x="477.5938" y="-135" clip-path="url(#clipPath2)" fill="none" width="116.0469" rx="4" ry="4" height="30"/>
    </g>
    <g fill="rgb(255,153,153)" text-rendering="geometricPrecision" shape-rendering="geometricPrecision" transform="matrix(1,0,0,1,15,815)" stroke="rgb(255,153,153)">
      <rect x="479.082" y="-100" clip-path="url(#clipPath2)" width="113.0703" rx="4" ry="4" height="30" stroke="none"/>
    </g>
    <g text-rendering="geometricPrecision" stroke-miterlimit="1.45" shape-rendering="geometricPrecision" font-family="sans-serif" transform="matrix(1,0,0,1,15,815)" stroke-linecap="butt">
      <text x="486.082" xml:space="preserve" y="-80.8457" clip-path="url(#clipPath2)" stroke="none">is_date_not_dow</text>
      <rect x="479.082" y="-100" clip-path="url(#clipPath2)" fill="none" width="113.0703" rx="4" ry="4" height="30"/>
    </g>
    <g fill="rgb(255,153,153)" text-rendering="geometricPrecision" shape-rendering="geometricPrecision" transform="matrix(1,0,0,1,15,815)" stroke="rgb(255,153,153)">
      <rect x="504.4707" y="-65" clip-path="url(#clipPath2)" width="62.293" rx="4" ry="4" height="30" stroke="none"/>
    </g>
    <g text-rendering="geometricPrecision" stroke-miterlimit="1.45" shape-rendering="geometricPrecision" font-family="sans-serif" transform="matrix(1,0,0,1,15,815)" stroke-linecap="butt">
      <text x="511.4707" xml:space="preserve" y="-45.8457" clip-path="url(#clipPath2)" stroke="none">enabled</text>
      <rect x="504.4707" y="-65" clip-path="url(#clipPath2)" fill="none" width="62.293" rx="4" ry="4" height="30"/>
    </g>
    <g fill="rgb(255,153,153)" text-rendering="geometricPrecision" shape-rendering="geometricPrecision" transform="matrix(1,0,0,1,15,815)" stroke="rgb(255,153,153)">
      <rect x="502.1123" y="-30" clip-path="url(#clipPath2)" width="67.0098" rx="4" ry="4" height="30" stroke="none"/>
    </g>
    <g text-rendering="geometricPrecision" stroke-miterlimit="1.45" shape-rendering="geometricPrecision" font-family="sans-serif" transform="matrix(1,0,0,1,15,815)" stroke-linecap="butt">
      <text x="509.1123" xml:space="preserve" y="-10.8457" clip-path="url(#clipPath2)" stroke="none">occurred</text>
      <rect x="502.1123" y="-30" clip-path="url(#clipPath2)" fill="none" width="67.0098" rx="4" ry="4" height="30"/>
    </g>
    <g fill="rgb(255,153,153)" text-rendering="geometricPrecision" shape-rendering="geometricPrecision" transform="matrix(1,0,0,1,15,815)" stroke="rgb(255,153,153)">
      <rect x="45" y="-572.5" clip-path="url(#clipPath2)" width="213.9922" rx="4" ry="4" height="30" stroke="none"/>
    </g>
    <g text-rendering="geometricPrecision" stroke-miterlimit="1.45" shape-rendering="geometricPrecision" font-family="sans-serif" transform="matrix(1,0,0,1,15,815)" stroke-linecap="butt">
      <text x="52" xml:space="preserve" y="-553.3457" clip-path="url(#clipPath2)" stroke="none">output_alarms_not_custom_wave</text>
      <rect x="45" y="-572.5" clip-path="url(#clipPath2)" fill="none" width="213.9922" rx="4" ry="4" height="30"/>
    </g>
    <g fill="aqua" text-rendering="geometricPrecision" shape-rendering="geometricPrecision" transform="matrix(1,0,0,1,15,815)" stroke="aqua">
      <rect x="88.9951" y="-537.5" clip-path="url(#clipPath2)" width="126.002" rx="4" ry="4" height="30" stroke="none"/>
    </g>
    <g text-rendering="geometricPrecision" stroke-miterlimit="1.45" shape-rendering="geometricPrecision" font-family="sans-serif" transform="matrix(1,0,0,1,15,815)" stroke-linecap="butt">
      <text x="95.9951" xml:space="preserve" y="-518.3457" clip-path="url(#clipPath2)" stroke="none">custom_wave_freq</text>
      <rect x="88.9951" y="-537.5" clip-path="url(#clipPath2)" fill="none" width="126.002" rx="4" ry="4" height="30"/>
    </g>
    <g fill="rgb(255,153,153)" text-rendering="geometricPrecision" shape-rendering="geometricPrecision" transform="matrix(1,0,0,1,15,815)" stroke="rgb(255,153,153)">
      <rect x="72.0381" y="-502.5" clip-path="url(#clipPath2)" width="159.916" rx="4" ry="4" height="30" stroke="none"/>
    </g>
    <g text-rendering="geometricPrecision" stroke-miterlimit="1.45" shape-rendering="geometricPrecision" font-family="sans-serif" transform="matrix(1,0,0,1,15,815)" stroke-linecap="butt">
      <text x="79.0381" xml:space="preserve" y="-483.3457" clip-path="url(#clipPath2)" stroke="none">converting_temperature</text>
      <rect x="72.0381" y="-502.5" clip-path="url(#clipPath2)" fill="none" width="159.916" rx="4" ry="4" height="30"/>
    </g>
    <g fill="rgb(255,255,153)" text-rendering="geometricPrecision" shape-rendering="geometricPrecision" transform="matrix(1,0,0,1,15,815)" stroke="rgb(255,255,153)">
      <rect x="114.0674" y="-240" clip-path="url(#clipPath2)" width="75.8574" rx="4" ry="4" height="30" stroke="none"/>
    </g>
    <g text-rendering="geometricPrecision" stroke-miterlimit="1.45" shape-rendering="geometricPrecision" font-family="sans-serif" transform="matrix(1,0,0,1,15,815)" stroke-linecap="butt">
      <text x="121.0674" xml:space="preserve" y="-220.8457" clip-path="url(#clipPath2)" stroke="none">at_battery</text>
      <rect x="114.0674" y="-240" clip-path="url(#clipPath2)" fill="none" width="75.8574" rx="4" ry="4" height="30"/>
    </g>
    <g fill="rgb(255,153,153)" text-rendering="geometricPrecision" shape-rendering="geometricPrecision" transform="matrix(1,0,0,1,15,815)" stroke="rgb(255,153,153)">
      <rect x="268.9922" y="-240" clip-path="url(#clipPath2)" width="193.6016" rx="4" ry="4" height="30" stroke="none"/>
    </g>
    <g text-rendering="geometricPrecision" stroke-miterlimit="1.45" shape-rendering="geometricPrecision" font-family="sans-serif" transform="matrix(1,0,0,1,15,815)" stroke-linecap="butt">
      <text x="275.9922" xml:space="preserve" y="-220.8457" clip-path="url(#clipPath2)" stroke="none">custom_wave_output_allowed</text>
      <rect x="268.9922" y="-240" clip-path="url(#clipPath2)" fill="none" width="193.6016" rx="4" ry="4" height="30"/>
    </g>
    <g fill="rgb(255,153,153)" text-rendering="geometricPrecision" shape-rendering="geometricPrecision" transform="matrix(1,0,0,1,15,815)" stroke="rgb(255,153,153)">
      <rect x="315.1289" y="-205" clip-path="url(#clipPath2)" width="101.3281" rx="4" ry="4" height="30" stroke="none"/>
    </g>
    <g text-rendering="geometricPrecision" stroke-miterlimit="1.45" shape-rendering="geometricPrecision" font-family="sans-serif" transform="matrix(1,0,0,1,15,815)" stroke-linecap="butt">
      <text x="322.1289" xml:space="preserve" y="-185.8457" clip-path="url(#clipPath2)" stroke="none">clock_disabled</text>
      <rect x="315.1289" y="-205" clip-path="url(#clipPath2)" fill="none" width="101.3281" rx="4" ry="4" height="30"/>
    </g>
    <g fill="rgb(255,153,153)" text-rendering="geometricPrecision" shape-rendering="geometricPrecision" transform="matrix(1,0,0,1,15,815)" stroke="rgb(255,153,153)">
      <rect x="122.915" y="-432.5" clip-path="url(#clipPath2)" width="58.1621" rx="4" ry="4" height="30" stroke="none"/>
    </g>
    <g text-rendering="geometricPrecision" stroke-miterlimit="1.45" shape-rendering="geometricPrecision" font-family="sans-serif" transform="matrix(1,0,0,1,15,815)" stroke-linecap="butt">
      <text x="129.915" xml:space="preserve" y="-413.3457" clip-path="url(#clipPath2)" stroke="none">is_busy</text>
      <rect x="122.915" y="-432.5" clip-path="url(#clipPath2)" fill="none" width="58.1621" rx="4" ry="4" height="30"/>
    </g>
    <g fill="rgb(255,153,153)" text-rendering="geometricPrecision" shape-rendering="geometricPrecision" transform="matrix(1,0,0,1,15,815)" stroke="rgb(255,153,153)">
      <rect x="70.084" y="-397.5" clip-path="url(#clipPath2)" width="163.8242" rx="4" ry="4" height="30" stroke="none"/>
    </g>
    <g text-rendering="geometricPrecision" stroke-miterlimit="1.45" shape-rendering="geometricPrecision" font-family="sans-serif" transform="matrix(1,0,0,1,15,815)" stroke-linecap="butt">
      <text x="77.084" xml:space="preserve" y="-378.3457" clip-path="url(#clipPath2)" stroke="none">fixed_wave_32k_enabled</text>
      <rect x="70.084" y="-397.5" clip-path="url(#clipPath2)" fill="none" width="163.8242" rx="4" ry="4" height="30"/>
    </g>
    <g fill="rgb(255,153,153)" text-rendering="geometricPrecision" shape-rendering="geometricPrecision" transform="matrix(1,0,0,1,15,815)" stroke="rgb(255,153,153)">
      <rect x="87.6094" y="-362.5" clip-path="url(#clipPath2)" width="128.7734" rx="4" ry="4" height="30" stroke="none"/>
    </g>
    <g text-rendering="geometricPrecision" stroke-miterlimit="1.45" shape-rendering="geometricPrecision" font-family="sans-serif" transform="matrix(1,0,0,1,15,815)" stroke-linecap="butt">
      <text x="94.6094" xml:space="preserve" y="-343.3457" clip-path="url(#clipPath2)" stroke="none">clock_was_stopped</text>
      <rect x="87.6094" y="-362.5" clip-path="url(#clipPath2)" fill="none" width="128.7734" rx="4" ry="4" height="30"/>
    </g>
    <g fill="aqua" text-rendering="geometricPrecision" shape-rendering="geometricPrecision" transform="matrix(1,0,0,1,15,815)" stroke="aqua">
      <rect x="108.46" y="-327.5" clip-path="url(#clipPath2)" width="87.0723" rx="4" ry="4" height="30" stroke="none"/>
    </g>
    <g text-rendering="geometricPrecision" stroke-miterlimit="1.45" shape-rendering="geometricPrecision" font-family="sans-serif" transform="matrix(1,0,0,1,15,815)" stroke-linecap="butt">
      <text x="115.46" xml:space="preserve" y="-308.3457" clip-path="url(#clipPath2)" stroke="none">clock_speed</text>
      <rect x="108.46" y="-327.5" clip-path="url(#clipPath2)" fill="none" width="87.0723" rx="4" ry="4" height="30"/>
    </g>
    <g fill="aqua" text-rendering="geometricPrecision" shape-rendering="geometricPrecision" transform="matrix(1,0,0,1,15,815)" stroke="aqua">
      <rect x="107.1504" y="-292.5" clip-path="url(#clipPath2)" width="89.6914" rx="4" ry="4" height="30" stroke="none"/>
    </g>
    <g text-rendering="geometricPrecision" stroke-miterlimit="1.45" shape-rendering="geometricPrecision" font-family="sans-serif" transform="matrix(1,0,0,1,15,815)" stroke-linecap="butt">
      <text x="114.1504" xml:space="preserve" y="-273.3457" clip-path="url(#clipPath2)" stroke="none">temperature</text>
      <rect x="107.1504" y="-292.5" clip-path="url(#clipPath2)" fill="none" width="89.6914" rx="4" ry="4" height="30"/>
      <path fill="none" d="M30 -417.5 L40 -417.5 L40 -645 L111.7501 -645" clip-path="url(#clipPath2)"/>
      <path d="M119.7501 -645 L107.7501 -650 L110.7501 -645 L107.7501 -640 Z" clip-path="url(#clipPath2)" stroke="none"/>
      <path fill="none" d="M30 -417.5 L40 -417.5 L40 -452.5 L119.6213 -452.5" clip-path="url(#clipPath2)"/>
      <path d="M127.6213 -452.5 L115.6213 -457.5 L118.6213 -452.5 L115.6213 -447.5 Z" clip-path="url(#clipPath2)" stroke="none"/>
      <path fill="none" d="M176.3281 -452.5 L349.9756 -452.5 L349.9756 -470 L354.9365 -470" clip-path="url(#clipPath2)"/>
      <path d="M354.9365 -470 L342.9365 -475 L345.9365 -470 L342.9365 -465 Z" clip-path="url(#clipPath2)" stroke="none"/>
      <path fill="none" d="M176.3281 -452.5 L349.9756 -452.5 L349.9756 -260 L354.9365 -260" clip-path="url(#clipPath2)"/>
      <path d="M354.9365 -260 L342.9365 -265 L345.9365 -260 L342.9365 -255 Z" clip-path="url(#clipPath2)" stroke="none"/>
      <path fill="none" d="M184.2031 -645 L306.6367 -645 L306.6367 -785 L329.3645 -785" clip-path="url(#clipPath2)"/>
      <path d="M337.3645 -785 L325.3645 -790 L328.3645 -785 L325.3645 -780 Z" clip-path="url(#clipPath2)" stroke="none"/>
      <path fill="none" d="M184.2031 -645 L306.6367 -645 L306.6367 -750 L329.6016 -750" clip-path="url(#clipPath2)"/>
      <path d="M337.6016 -750 L325.6016 -755 L328.6016 -750 L325.6016 -745 Z" clip-path="url(#clipPath2)" stroke="none"/>
      <path fill="none" d="M184.2031 -645 L338.3666 -645" clip-path="url(#clipPath2)"/>
      <path d="M346.3666 -645 L334.3666 -650 L337.3666 -645 L334.3666 -640 Z" clip-path="url(#clipPath2)" stroke="none"/>
      <path fill="none" d="M184.2031 -645 L306.6367 -645 L306.6367 -610 L337.226 -610" clip-path="url(#clipPath2)"/>
      <path d="M345.226 -610 L333.226 -615 L336.226 -610 L333.226 -605 Z" clip-path="url(#clipPath2)" stroke="none"/>
      <path fill="none" d="M184.2031 -645 L306.6367 -645 L306.6367 -715 L337.0123 -715" clip-path="url(#clipPath2)"/>
      <path d="M345.0123 -715 L333.0123 -720 L336.0123 -715 L333.0123 -710 Z" clip-path="url(#clipPath2)" stroke="none"/>
      <path fill="none" d="M184.2031 -645 L306.6367 -645 L306.6367 -575 L331.2874 -575" clip-path="url(#clipPath2)"/>
      <path d="M339.2874 -575 L327.2874 -580 L330.2874 -575 L327.2874 -570 Z" clip-path="url(#clipPath2)" stroke="none"/>
      <path fill="none" d="M184.2031 -645 L306.6367 -645 L306.6367 -505 L311.5977 -505" clip-path="url(#clipPath2)"/>
      <path d="M311.5977 -505 L299.5977 -510 L302.5977 -505 L299.5977 -500 Z" clip-path="url(#clipPath2)" stroke="none"/>
      <path fill="none" d="M184.2031 -645 L306.6367 -645 L306.6367 -540 L337.3694 -540" clip-path="url(#clipPath2)"/>
      <path d="M345.3694 -540 L333.3694 -545 L336.3694 -540 L333.3694 -535 Z" clip-path="url(#clipPath2)" stroke="none"/>
      <path fill="none" d="M184.2031 -645 L306.6367 -645 L306.6367 -680 L308.4002 -680" clip-path="url(#clipPath2)"/>
      <path d="M316.4002 -680 L304.4002 -685 L307.4002 -680 L304.4002 -675 Z" clip-path="url(#clipPath2)" stroke="none"/>
      <path fill="none" d="M376.6104 -470 L472.5938 -470 L472.5938 -750 L499.1849 -750" clip-path="url(#clipPath2)"/>
      <path d="M507.1849 -750 L495.1849 -755 L498.1849 -750 L495.1849 -745 Z" clip-path="url(#clipPath2)" stroke="none"/>
      <path fill="none" d="M376.6104 -470 L472.5938 -470 L472.5938 -715 L499.422 -715" clip-path="url(#clipPath2)"/>
      <path d="M507.422 -715 L495.422 -720 L498.422 -715 L495.422 -710 Z" clip-path="url(#clipPath2)" stroke="none"/>
      <path fill="none" d="M376.6104 -470 L472.5938 -470 L472.5938 -680 L506.8327 -680" clip-path="url(#clipPath2)"/>
      <path d="M514.8328 -680 L502.8328 -685 L505.8328 -680 L502.8328 -675 Z" clip-path="url(#clipPath2)" stroke="none"/>
      <path fill="none" d="M376.6104 -260 L472.5938 -260 L472.5938 -330 L499.422 -330" clip-path="url(#clipPath2)"/>
      <path d="M507.422 -330 L495.422 -335 L498.422 -330 L495.422 -325 Z" clip-path="url(#clipPath2)" stroke="none"/>
      <path fill="none" d="M376.6104 -260 L472.5938 -260 L472.5938 -295 L506.8327 -295" clip-path="url(#clipPath2)"/>
      <path d="M514.8328 -295 L502.8328 -300 L505.8328 -295 L502.8328 -290 Z" clip-path="url(#clipPath2)" stroke="none"/>
      <path fill="none" d="M376.6104 -470 L472.5938 -470 L472.5938 -645 L478.236 -645" clip-path="url(#clipPath2)"/>
      <path d="M486.236 -645 L474.236 -650 L477.236 -645 L474.236 -640 Z" clip-path="url(#clipPath2)" stroke="none"/>
      <path fill="none" d="M376.6104 -260 L478.2359 -260" clip-path="url(#clipPath2)"/>
      <path d="M486.2359 -260 L474.2359 -265 L477.2359 -260 L474.2359 -255 Z" clip-path="url(#clipPath2)" stroke="none"/>
      <path fill="none" d="M376.6104 -470 L472.5938 -470 L472.5938 -610 L477.0624 -610" clip-path="url(#clipPath2)"/>
      <path d="M485.0624 -610 L473.0624 -615 L476.0624 -610 L473.0624 -605 Z" clip-path="url(#clipPath2)" stroke="none"/>
      <path fill="none" d="M376.6104 -470 L472.5938 -470 L472.5938 -575 L477.2988 -575" clip-path="url(#clipPath2)"/>
      <path d="M485.2988 -575 L473.2988 -580 L476.2988 -575 L473.2988 -570 Z" clip-path="url(#clipPath2)" stroke="none"/>
      <path fill="none" d="M376.6104 -470 L472.5938 -470 L472.5938 -540 L484.7272 -540" clip-path="url(#clipPath2)"/>
      <path d="M492.7272 -540 L480.7272 -545 L483.7272 -540 L480.7272 -535 Z" clip-path="url(#clipPath2)" stroke="none"/>
      <path fill="none" d="M376.6104 -470 L472.5938 -470 L472.5938 -505 L491.6747 -505" clip-path="url(#clipPath2)"/>
      <path d="M499.6747 -505 L487.6747 -510 L490.6747 -505 L487.6747 -500 Z" clip-path="url(#clipPath2)" stroke="none"/>
      <path fill="none" d="M376.6104 -470 L469.5444 -470" clip-path="url(#clipPath2)"/>
      <path d="M477.5444 -470 L465.5444 -475 L468.5444 -470 L465.5444 -465 Z" clip-path="url(#clipPath2)" stroke="none"/>
      <path fill="none" d="M376.6104 -470 L472.5938 -470 L472.5938 -435 L479.0567 -435" clip-path="url(#clipPath2)"/>
      <path d="M479.0567 -435 L467.0567 -440 L470.0567 -435 L467.0567 -430 Z" clip-path="url(#clipPath2)" stroke="none"/>
      <path fill="none" d="M376.6104 -470 L472.5938 -470 L472.5938 -400 L496.4396 -400" clip-path="url(#clipPath2)"/>
      <path d="M504.4396 -400 L492.4396 -405 L495.4396 -400 L492.4396 -395 Z" clip-path="url(#clipPath2)" stroke="none"/>
      <path fill="none" d="M376.6104 -470 L472.5938 -470 L472.5938 -365 L494.0835 -365" clip-path="url(#clipPath2)"/>
      <path d="M502.0835 -365 L490.0835 -370 L493.0835 -365 L490.0835 -360 Z" clip-path="url(#clipPath2)" stroke="none"/>
      <path fill="none" d="M376.6104 -260 L472.5938 -260 L472.5938 -225 L477.2988 -225" clip-path="url(#clipPath2)"/>
      <path d="M485.2988 -225 L473.2988 -230 L476.2988 -225 L473.2988 -220 Z" clip-path="url(#clipPath2)" stroke="none"/>
      <path fill="none" d="M376.6104 -260 L472.5938 -260 L472.5938 -190 L484.7272 -190" clip-path="url(#clipPath2)"/>
      <path d="M492.7272 -190 L480.7272 -195 L483.7272 -190 L480.7272 -185 Z" clip-path="url(#clipPath2)" stroke="none"/>
      <path fill="none" d="M376.6104 -260 L472.5938 -260 L472.5938 -155 L491.6747 -155" clip-path="url(#clipPath2)"/>
      <path d="M499.6747 -155 L487.6747 -160 L490.6747 -155 L487.6747 -150 Z" clip-path="url(#clipPath2)" stroke="none"/>
      <path fill="none" d="M376.6104 -260 L472.5938 -260 L472.5938 -120 L477.5547 -120" clip-path="url(#clipPath2)"/>
      <path d="M477.5547 -120 L465.5547 -125 L468.5547 -120 L465.5547 -115 Z" clip-path="url(#clipPath2)" stroke="none"/>
      <path fill="none" d="M376.6104 -260 L472.5938 -260 L472.5938 -85 L479.0567 -85" clip-path="url(#clipPath2)"/>
      <path d="M479.0567 -85 L467.0567 -90 L470.0567 -85 L467.0567 -80 Z" clip-path="url(#clipPath2)" stroke="none"/>
      <path fill="none" d="M376.6104 -260 L472.5938 -260 L472.5938 -50 L496.4396 -50" clip-path="url(#clipPath2)"/>
      <path d="M504.4396 -50 L492.4396 -55 L495.4396 -50 L492.4396 -45 Z" clip-path="url(#clipPath2)" stroke="none"/>
      <path fill="none" d="M376.6104 -260 L472.5938 -260 L472.5938 -15 L494.0835 -15" clip-path="url(#clipPath2)"/>
      <path d="M502.0835 -15 L490.0835 -20 L493.0835 -15 L490.0835 -10 Z" clip-path="url(#clipPath2)" stroke="none"/>
      <path fill="none" d="M30 -417.5 L40 -417.5 L40 -557.5 L44.9609 -557.5" clip-path="url(#clipPath2)"/>
      <path d="M44.9609 -557.5 L32.9609 -562.5 L35.9609 -557.5 L32.9609 -552.5 Z" clip-path="url(#clipPath2)" stroke="none"/>
      <path fill="none" d="M30 -417.5 L40 -417.5 L40 -522.5 L80.9473 -522.5" clip-path="url(#clipPath2)"/>
      <path d="M88.9473 -522.5 L76.9473 -527.5 L79.9473 -522.5 L76.9473 -517.5 Z" clip-path="url(#clipPath2)" stroke="none"/>
      <path fill="none" d="M30 -417.5 L40 -417.5 L40 -487.5 L64.0068 -487.5" clip-path="url(#clipPath2)"/>
      <path d="M72.0068 -487.5 L60.0068 -492.5 L63.0068 -487.5 L60.0068 -482.5 Z" clip-path="url(#clipPath2)" stroke="none"/>
      <path fill="none" d="M30 -417.5 L40 -417.5 L40 -225 L106.0312 -225" clip-path="url(#clipPath2)"/>
      <path d="M114.0312 -225 L102.0312 -230 L105.0312 -225 L102.0312 -220 Z" clip-path="url(#clipPath2)" stroke="none"/>
      <path fill="none" d="M189.9248 -225 L260.9536 -225" clip-path="url(#clipPath2)"/>
      <path d="M268.9536 -225 L256.9536 -230 L259.9536 -225 L256.9536 -220 Z" clip-path="url(#clipPath2)" stroke="none"/>
      <path fill="none" d="M189.9248 -225 L263.9922 -225 L263.9922 -190 L307.079 -190" clip-path="url(#clipPath2)"/>
      <path d="M315.079 -190 L303.079 -195 L306.079 -190 L303.079 -185 Z" clip-path="url(#clipPath2)" stroke="none"/>
      <path fill="none" d="M30 -417.5 L114.8697 -417.5" clip-path="url(#clipPath2)"/>
      <path d="M122.8697 -417.5 L110.8697 -422.5 L113.8697 -417.5 L110.8697 -412.5 Z" clip-path="url(#clipPath2)" stroke="none"/>
      <path fill="none" d="M30 -417.5 L40 -417.5 L40 -382.5 L62.0546 -382.5" clip-path="url(#clipPath2)"/>
      <path d="M70.0546 -382.5 L58.0546 -387.5 L61.0546 -382.5 L58.0546 -377.5 Z" clip-path="url(#clipPath2)" stroke="none"/>
      <path fill="none" d="M30 -417.5 L40 -417.5 L40 -347.5 L79.5629 -347.5" clip-path="url(#clipPath2)"/>
      <path d="M87.5629 -347.5 L75.5629 -352.5 L78.5629 -347.5 L75.5629 -342.5 Z" clip-path="url(#clipPath2)" stroke="none"/>
      <path fill="none" d="M30 -417.5 L40 -417.5 L40 -312.5 L100.4265 -312.5" clip-path="url(#clipPath2)"/>
      <path d="M108.4265 -312.5 L96.4265 -317.5 L99.4265 -312.5 L96.4265 -307.5 Z" clip-path="url(#clipPath2)" stroke="none"/>
      <path fill="none" d="M30 -417.5 L40 -417.5 L40 -277.5 L99.1176 -277.5" clip-path="url(#clipPath2)"/>
      <path d="M107.1176 -277.5 L95.1176 -282.5 L98.1176 -277.5 L95.1176 -272.5 Z" clip-path="url(#clipPath2)" stroke="none"/>
    </g>
  </g>
</svg>
